<?xml version="1.0" encoding="UTF-8" standalone="no"?>
<!-- Created with Inkscape (http://www.inkscape.org/) -->

<svg
   width="102.3668mm"
   height="127.8449mm"
   viewBox="0 0 102.3668 127.8449"
   version="1.1"
   id="svg5"
   sodipodi:docname="tide_logo.svg"
   inkscape:version="1.1.1 (3bf5ae0d25, 2021-09-20)"
   xmlns:inkscape="http://www.inkscape.org/namespaces/inkscape"
   xmlns:sodipodi="http://sodipodi.sourceforge.net/DTD/sodipodi-0.dtd"
   xmlns:xlink="http://www.w3.org/1999/xlink"
   xmlns="http://www.w3.org/2000/svg"
   xmlns:svg="http://www.w3.org/2000/svg">
  <sodipodi:namedview
     id="namedview7"
     pagecolor="#ffffff"
     bordercolor="#666666"
     borderopacity="1.0"
     inkscape:pageshadow="2"
     inkscape:pageopacity="0.0"
     inkscape:pagecheckerboard="0"
     inkscape:document-units="mm"
     showgrid="false"
     inkscape:zoom="0.74118967"
     inkscape:cx="138.96578"
     inkscape:cy="220.59131"
     inkscape:window-width="1920"
     inkscape:window-height="1017"
     inkscape:window-x="1912"
     inkscape:window-y="157"
     inkscape:window-maximized="1"
     inkscape:current-layer="layer1" />
  <defs
     id="defs2">
    <linearGradient
       inkscape:collect="always"
       id="linearGradient65295">
      <stop
         style="stop-color:#bd2610;stop-opacity:1;"
         offset="0"
         id="stop65291" />
      <stop
         style="stop-color:#808080;stop-opacity:1"
         offset="0.48420605"
         id="stop65973" />
      <stop
         style="stop-color:#3ec5f4;stop-opacity:1"
         offset="1"
         id="stop65293" />
    </linearGradient>
    <linearGradient
       inkscape:collect="always"
       xlink:href="#linearGradient65295"
       id="linearGradient65297"
       x1="320.21048"
       y1="216.65521"
       x2="256.03625"
       y2="142.40416"
       gradientUnits="userSpaceOnUse"
       gradientTransform="translate(53.083208,1.2129421)" />
  </defs>
  <g
     inkscape:label="Calque 1"
     inkscape:groupmode="layer"
     id="layer1"
     transform="translate(-53.083208,-1.2129421)">
    <g
       id="g14476"
       style="fill:#bd2610;fill-opacity:1"
       transform="translate(-248.85571,-130.54709)">
      <g
         id="g14470"
         transform="translate(9.4186038,2.2433035)"
         style="fill:#bd2610;fill-opacity:1">
        <g
           id="g14465"
           style="fill:#bd2610;fill-opacity:1">
          <g
             id="g14461"
             style="fill:#bd2610;fill-opacity:1">
            <path
               style="opacity:1;fill:url(#linearGradient65297);fill-opacity:1;stroke-width:1"
               d="m 337.33095,228.54198 c -1.16416,-0.14125 -3.47198,-0.5599 -5.12846,-0.9303 -19.61045,-4.38509 -34.76066,-19.52988 -38.93972,-38.92578 -0.3728,-1.73026 -0.60459,-4.00111 -0.70184,-6.87604 -0.24585,-7.26826 0.62544,-13.85118 2.58577,-19.53635 5.6305,-16.32905 19.44344,-28.4985 36.5067,-32.16305 2.2728,-0.48811 3.59429,-0.59418 7.39734,-0.59373 5.78662,6.8e-4 7.55679,0.35777 11.50938,2.32174 8.003,3.97656 12.85384,10.60261 13.28692,18.1494 0.29035,5.05935 -1.10957,9.09937 -4.25619,12.28301 -3.05372,3.08963 -6.06583,4.28025 -10.24581,4.04992 -3.02416,-0.16664 -4.39905,-0.68744 -6.21353,-2.35363 -2.05767,-1.88952 -2.73471,-4.00527 -1.70182,-5.31836 l 0.52686,-0.66979 0.98429,0.50181 c 1.61549,0.82363 2.66647,0.5702 3.3832,-0.81579 0.86801,-1.67853 0.21564,-4.56215 -1.27167,-5.62121 -1.63643,-1.16524 -6.29104,-0.47887 -8.27625,1.2204 -1.17187,1.00307 -2.52542,3.32764 -3.02013,5.1867 -0.82115,3.08587 -0.1114,7.85147 1.72265,11.56669 1.93199,3.91359 6.14917,7.96562 10.65312,10.23592 5.72574,2.88618 14.07948,3.85445 19.64189,2.27667 7.56613,-2.14614 13.84406,-7.31734 17.51711,-14.42906 2.12224,-4.10904 3.02578,-7.14576 3.34288,-11.23516 l 0.17439,-2.24896 0.80227,-0.0786 c 1.06329,-0.10419 2.47602,0.8649 3.21519,2.20552 0.6082,1.10308 2.14689,6.54794 2.98791,10.57309 1.44043,6.89401 1.43116,14.97442 -0.0254,22.21401 -1.25271,6.22617 -4.33572,13.47252 -7.82818,18.39953 -2.51514,3.54824 -7.99204,8.94284 -11.45487,11.28275 -6.47217,4.37338 -13.87862,7.49598 -21.03437,8.8682 -3.12015,0.59834 -12.74125,0.87283 -16.13958,0.46047 z m 15.02688,-4.07767 c 2.18873,-0.15475 4.53216,-0.88597 5.53363,-1.72665 0.87759,-0.73671 0.37845,-0.94385 -2.79042,-1.15804 -15.24265,-1.03025 -27.3618,-5.63352 -37.67907,-14.31182 -7.8626,-6.61356 -13.53048,-16.15807 -15.0041,-25.2664 -2.54915,-15.75596 6.23032,-33.55259 19.83182,-40.20056 3.81495,-1.86462 5.80111,-2.40883 9.39272,-2.5736 3.57571,-0.16403 6.03433,0.26019 8.67818,1.4974 6.15522,2.88038 9.93271,8.04888 9.96012,13.62781 0.0143,2.90746 -0.58099,4.527 -2.25283,6.12924 -0.71732,0.68744 -1.30422,1.34578 -1.30422,1.46294 0,0.11717 0.38695,0.2104 0.8599,0.20722 2.00339,-0.0136 4.55427,-1.93701 5.57511,-4.20388 0.76381,-1.69612 0.92081,-5.62235 0.31835,-7.96115 -1.60733,-6.23976 -8.37144,-12.128 -16.16196,-14.06918 -3.05133,-0.76031 -8.29671,-0.82006 -11.09288,-0.12637 -4.63257,1.14928 -9.97985,3.87342 -14.07685,7.17138 -15.06516,12.12694 -20.48681,35.63997 -12.08249,52.4002 6.57599,13.1141 19.85967,23.83197 34.22539,27.61459 6.50432,1.71264 10.37341,2.03101 18.0696,1.48687 z m 11.77261,-7.02546 c 6.03991,-0.66129 9.91709,-2.27185 13.39549,-5.56444 2.22028,-2.10168 3.80549,-4.08468 3.50529,-4.38488 -0.0918,-0.0918 -0.85361,0.19742 -1.69295,0.6427 -5.96632,3.16518 -16.39562,5.00004 -24.63478,4.33407 -19.6537,-1.58858 -36.81681,-12.67408 -42.48357,-27.43976 -2.41898,-6.30304 -2.66921,-13.24271 -0.69105,-19.16472 1.68122,-5.03309 4.69759,-9.9673 8.33957,-13.64197 2.61446,-2.63792 4.60634,-4.09329 7.73427,-5.65106 2.82986,-1.40933 4.57097,-1.87363 7.02609,-1.87363 2.60556,0 4.84689,0.55801 7.03331,1.75104 0.92693,0.50579 1.73578,0.86917 1.79743,0.80751 0.21104,-0.21104 -2.42308,-2.34636 -4.19177,-3.398 -1.34529,-0.7999 -2.22987,-1.11635 -3.70417,-1.32514 -12.89615,-1.82638 -26.17252,10.04957 -29.48401,26.37395 -0.71605,3.52987 -0.66865,10.77056 0.092,14.04751 3.61183,15.56094 17.54172,28.28507 36.02791,32.90935 2.84022,0.71047 7.1576,1.45857 9.68357,1.67791 2.51505,0.2184 9.88747,0.15794 12.2474,-0.10044 z m 4.20224,-9.61192 c 1.77126,-0.37713 4.21204,-0.99639 5.42395,-1.37614 6.41133,-2.00897 12.22289,-6.1505 14.24175,-10.14916 1.26829,-2.51206 1.96428,-5.30439 1.3221,-5.30439 -0.14612,0 -1.29202,0.9532 -2.54646,2.11823 -3.78426,3.51455 -8.1188,6.03823 -13.38518,7.7932 -15.43265,5.14278 -32.90386,1.81006 -45.31831,-8.64468 -6.57924,-5.54066 -10.50058,-12.7567 -12.53338,-23.06391 l -0.73396,-3.72142 -0.48244,1.84523 c -0.62893,2.40558 -0.83822,7.73441 -0.40844,10.40044 1.71691,10.65073 9.41217,20.02555 21.01853,25.60602 5.14291,2.47276 12.11566,4.43347 18.15621,5.10547 1.22956,0.13678 4.43822,0.21002 7.13035,0.16274 4.03476,-0.0708 5.46065,-0.20643 8.11528,-0.77163 z m -0.67633,-9.12652 c 8.02279,-1.75259 14.11041,-5.08666 19.31434,-10.57808 2.9176,-3.07878 3.75937,-4.54563 4.21029,-7.33675 0.30079,-1.86175 0.14611,-4.47895 -0.28027,-4.74247 -0.12977,-0.0802 -0.46951,0.31206 -0.75502,0.87167 -0.97443,1.91003 -3.64156,5.21599 -6.05742,7.50829 -6.45701,6.12675 -14.67911,9.61655 -24.00316,10.18797 -5.90769,0.36204 -12.16802,-1.03363 -18.53152,-4.13141 -9.50832,-4.62867 -16.25831,-12.85005 -18.00445,-21.9291 -0.51072,-2.65546 -0.46867,-4.61284 0.15116,-7.03634 0.74127,-2.89835 1.94177,-5.16954 3.81047,-7.20888 1.95141,-2.12963 3.45181,-3.12031 7.05353,-4.65734 1.50712,-0.64317 2.78586,-1.30629 2.84164,-1.4736 0.14506,-0.43518 -2.3549,-0.39063 -4.8481,0.0864 -3.24245,0.62038 -6.14694,2.17793 -8.5654,4.59325 -2.1852,2.18236 -3.17854,3.82744 -4.41955,7.31926 -0.67118,1.88851 -0.75106,2.4589 -0.74102,5.29167 0.0123,3.47287 0.38013,5.35012 2.10494,10.74236 1.09526,3.42411 1.95191,5.10808 3.98228,7.82822 5.43101,7.2761 14.69687,12.71869 24.87374,14.61036 4.24286,0.78866 4.03233,0.77401 9.8954,0.68897 4.30754,-0.0625 5.94763,-0.19307 7.96812,-0.63445 z m -1.97834,-8.32674 c 9.55593,-2.10006 18.04891,-8.54771 22.36135,-16.97613 1.77677,-3.47264 2.17729,-4.87871 1.96893,-6.91236 -0.19787,-1.93137 -0.57528,-3.10471 -0.92845,-2.88644 -0.13349,0.0825 -0.49955,0.95287 -0.81349,1.93414 -2.11676,6.61654 -8.39703,13.79028 -15.28624,17.461 -2.6527,1.41342 -6.99214,2.8527 -9.82674,3.25928 -2.7033,0.38774 -8.11613,0.19322 -10.80079,-0.38816 -11.13998,-2.41242 -19.95678,-10.59508 -21.93484,-20.35721 -0.53867,-2.65845 -0.37131,-6.45716 0.39071,-8.86858 l 0.53152,-1.68199 -0.6476,0.60839 c -3.09843,2.91082 -4.56623,9.05193 -3.33101,13.93655 0.67686,2.67665 2.29351,6.18548 3.85027,8.3568 4.82608,6.73125 14.23899,11.88339 23.7141,12.97988 2.01581,0.23327 8.93653,-0.0661 10.75228,-0.46517 z m -6.48468,-33.90456 c 2.49846,-5.32509 0.86117,-12.4358 -3.99799,-17.36314 -3.10564,-3.14922 -6.81365,-5.29707 -10.65688,-6.17295 -2.32853,-0.53067 -5.14888,-0.73691 -6.54606,-0.47867 l -1.19061,0.22006 2.24895,0.62695 c 4.4363,1.23673 10.58435,4.9001 13.25201,7.89633 2.9391,3.30112 4.49359,6.77224 4.97155,11.10125 0.27996,2.53579 0.14429,3.5235 -0.87714,6.38625 -0.22719,0.63676 -0.40835,1.35114 -0.40258,1.5875 0.018,0.73573 2.39525,-2.09102 3.19875,-3.80358 z"
               id="path2067"
               inkscape:transform-center-x="38.872175"
               inkscape:transform-center-y="-37.357675" />
          </g>
        </g>
      </g>
    </g>
    <path
       style="fill:#000000;stroke-width:1"
       id="path1975"
       d="" />
    <text
       xml:space="preserve"
       style="font-style:normal;font-weight:normal;font-size:10.5833px;line-height:1.25;font-family:sans-serif;white-space:pre;inline-size:46.0814;fill:#bb2914;fill-opacity:1;stroke:none;stroke-width:0.0743642"
       x="178.73705"
       y="61.184093"
       id="text75913"
       transform="matrix(4.224748,0,0,2.9963673,-694.53706,-54.272171)"><tspan
         x="178.73705"
         y="61.184093"
         id="tspan949"><tspan
           style="font-family:'Yu Gothic UI';-inkscape-font-specification:'Yu Gothic UI'"
           id="tspan947">TIDE</tspan></tspan></text>
  </g>
</svg>
